# xmcd CD Database Entry
#
# Track frame offsets:
# 150
# 16346
# 28452
# 46130
# 66842
# 86494
# 103654
# 124803
# 148858
# 166415
#
# Disc length: 2392 seconds
#
# Revision: 1
# Processed by: cddbd v1.4PL0 Copyright (c) Steve Scherf et al.
# Submitted via: tcd 2.0b
#
DISCID=8909560a
DTITLE=Elefantes - en acústico
DYEAR=1900
DGENRE=
TTITLE0=Me he vuelto a equivocar
TTITLE1=Sí/No
TTITLE2=Azul
TTITLE3=Cuéntame
TTITLE4=Si no te siento
TTITLE5=Se me escapa el tiempo
TTITLE6=Se me va
TTITLE7=Me gustaría poder hacerte feliz
TTITLE8=Desde aquí
TTITLE9=Piedad (hobby de hotel)
EXTD=
EXTT0=
EXTT1=
EXTT2=
EXTT3=
EXTT4=
EXTT5=
EXTT6=
EXTT7=
EXTT8=
EXTT9=
PLAYORDER=
